<?xml version="1.0" encoding="utf-8"?>
<svg viewBox="0 0 70 70" xmlns="http://www.w3.org/2000/svg">
  <g transform="matrix(0.868209, 0, 0, 0.868209, 9.927841, 7.398795)" style="">
    <title>Layer 1</title>
    <path class="st1" d="M41.8,30.5c-0.1-6.2,5.1-9.2,5.3-9.4c-2.9-4.2-7.4-4.8-9-4.9c-3.8-0.4-7.5,2.3-9.4,2.3c-1.9,0-4.9-2.2-8.1-2.1 c-4.2,0.1-8,2.4-10.2,6.2C6,30.1,9.3,41.2,13.5,47.3c2.1,3,4.5,6.3,7.8,6.2c3.1-0.1,4.3-2,8.1-2s4.8,2,8.1,2c3.4-0.1,5.5-3,7.5-6 c2.4-3.5,3.3-6.8,3.4-7C48.3,40.4,41.8,38,41.8,30.5z" style="fill: rgb(255, 255, 255);"/>
    <path class="st1" d="M35.6,12.2c1.7-2.1,2.9-5,2.6-7.9c-2.5,0.1-5.5,1.6-7.2,3.7c-1.6,1.8-3,4.8-2.6,7.6 C31,15.9,33.9,14.3,35.6,12.2z" style="fill: rgb(255, 255, 255);"/>
  </g>
</svg>